<svg width="20" height="23" viewBox="0 0 20 23" fill="none" xmlns="http://www.w3.org/2000/svg">
<mask id="mask0_0_12" style="mask-type:luminance" maskUnits="userSpaceOnUse" x="0" y="0" width="20" height="23">
<path fill-rule="evenodd" clip-rule="evenodd" d="M0.00296021 0H19.998V22.4439H0.00296021V0Z" fill="white"/>
</mask>
<g mask="url(#mask0_0_12)">
<path fill-rule="evenodd" clip-rule="evenodd" d="M17.8204 20.1239C17.3171 20.6673 16.6321 20.9666 15.8914 20.9666H4.10665C3.36596 20.9666 2.68093 20.6673 2.17758 20.1239C1.67433 19.5805 1.42827 18.8745 1.48482 18.138L2.61142 6.71897C2.62285 6.56961 2.74916 6.45266 2.89896 6.45266H5.12369V8.27212C5.12369 8.68005 5.45443 9.01079 5.86236 9.01079C6.27034 9.01079 6.60103 8.68005 6.60103 8.27212V6.45266H13.397V8.27212C13.397 8.68005 13.7277 9.01079 14.1357 9.01079C14.5436 9.01079 14.8743 8.68005 14.8743 8.27212V6.45266H17.0991C17.2489 6.45266 17.3752 6.56966 17.3868 6.72094L18.5132 18.136C18.5698 18.8745 18.3238 19.5805 17.8204 20.1239ZM6.60103 4.87532C6.60103 3.00167 8.12541 1.47734 9.99901 1.47734C11.8727 1.47734 13.397 3.00172 13.397 4.87532V4.97532H6.60103V4.87532ZM18.8597 6.60601C18.7895 5.69163 18.0162 4.97532 17.0991 4.97532H14.8743V4.87532C14.8743 2.18704 12.6873 0 9.99901 0C7.31078 0 5.12369 2.18704 5.12369 4.87532V4.97532H2.89896C1.98192 4.97532 1.20857 5.69158 1.13857 6.60409L0.0119174 18.0231C-0.0752748 19.1598 0.31906 20.2914 1.09374 21.1278C1.86837 21.9641 2.9666 22.4439 4.1066 22.4439H15.8914C17.0314 22.4439 18.1296 21.9642 18.9043 21.1278C19.6791 20.2914 20.0733 19.1598 19.9861 18.0211L18.8597 6.60601Z" fill="#2E2C38"/>
</g>
</svg>
