<svg width="14" height="13" viewBox="0 0 14 13" fill="none" xmlns="http://www.w3.org/2000/svg">
<mask id="mask0_0_147" style="mask-type:luminance" maskUnits="userSpaceOnUse" x="0" y="0" width="14" height="13">
<path fill-rule="evenodd" clip-rule="evenodd" d="M0.00164795 0.0183716H14V12.3867H0.00164795V0.0183716Z" fill="white"/>
</mask>
<g mask="url(#mask0_0_147)">
<path fill-rule="evenodd" clip-rule="evenodd" d="M8.4545 10.1842C7.98746 10.5821 7.50682 10.9917 7 11.4323C6.49321 10.9918 6.01254 10.5822 5.54542 10.1841C2.70006 7.75947 0.820312 6.15764 0.820312 4.05198C0.820312 3.18163 1.11029 2.37324 1.63685 1.77575C2.16945 1.17148 2.9088 0.838684 3.71875 0.838684C4.84337 0.838684 5.57036 1.53152 5.98216 2.11274C6.35154 2.63402 6.54429 3.15951 6.61002 3.36123C6.66501 3.53007 6.82243 3.64434 7 3.64434C7.17757 3.64434 7.33499 3.53007 7.38998 3.36123C7.45571 3.15951 7.64846 2.63402 8.01784 2.11271C8.42964 1.53152 9.15663 0.838684 10.2812 0.838684C11.0912 0.838684 11.8305 1.17148 12.3631 1.77575C12.8897 2.37324 13.1797 3.18163 13.1797 4.05198C13.1797 6.15764 11.2999 7.75947 8.4545 10.1842ZM10.2812 0.0183716C8.80611 0.0183716 7.87218 0.899387 7.3485 1.63849C7.21262 1.83028 7.09704 2.02259 7 2.20355C6.90296 2.02259 6.7874 1.83028 6.6515 1.63849C6.12782 0.899387 5.19389 0.0183716 3.71875 0.0183716C2.6699 0.0183716 1.71196 0.449883 1.02143 1.23339C0.362769 1.98081 0 2.98181 0 4.05198C0 5.21691 0.454809 6.30041 1.43131 7.46175C2.30404 8.49972 3.55958 9.56963 5.01348 10.8085C5.55524 11.2702 6.11548 11.7476 6.71193 12.2695L6.72984 12.2852C6.80717 12.3529 6.90359 12.3867 7 12.3867C7.09641 12.3867 7.19283 12.3529 7.27016 12.2852L7.28807 12.2695C7.88452 11.7476 8.44476 11.2702 8.98661 10.8085C10.4404 9.56965 11.696 8.49975 12.5687 7.46175C13.5452 6.30038 14 5.21691 14 4.05198C14 2.98181 13.6372 1.98081 12.9785 1.23336C12.288 0.449856 11.3301 0.0183716 10.2812 0.0183716V0.0183716Z" fill="#A4A4A4"/>
</g>
</svg>
