<svg width="16" height="16" viewBox="0 0 16 16" fill="none" xmlns="http://www.w3.org/2000/svg">
<mask id="mask0_0_135" style="mask-type:luminance" maskUnits="userSpaceOnUse" x="0" y="0" width="16" height="16">
<path fill-rule="evenodd" clip-rule="evenodd" d="M0.00189209 0H15.9984V16H0.00189209V0Z" fill="white"/>
</mask>
<g mask="url(#mask0_0_135)">
<path fill-rule="evenodd" clip-rule="evenodd" d="M15.5686 6.95922C15.5683 6.95888 15.5679 6.9585 15.5675 6.95813L9.04079 0.431625C8.76258 0.153313 8.3927 0 7.99929 0C7.60586 0 7.23598 0.153188 6.95767 0.431531L0.434325 6.95472C0.432138 6.95691 0.42995 6.95922 0.427763 6.96144C-0.14355 7.536 -0.14255 8.46825 0.430544 9.04138C0.692388 9.30334 1.03823 9.45506 1.40798 9.47094C1.42298 9.47241 1.43814 9.47316 1.45339 9.47316H1.71351V14.2762C1.71351 15.2267 2.48683 16 3.43751 16H5.99098C6.24976 16 6.45973 15.7902 6.45973 15.5312V11.7656C6.45973 11.3319 6.81251 10.9791 7.24623 10.9791H8.75233C9.18604 10.9791 9.53883 11.3319 9.53883 11.7656V15.5312C9.53883 15.7902 9.74867 16 10.0076 16H12.561C13.5117 16 14.285 15.2267 14.285 14.2762V9.47316H14.5263C14.9196 9.47316 15.2895 9.31994 15.5679 9.04163C16.1416 8.46753 16.1419 7.53369 15.5686 6.95922Z" fill="#2E4B9C"/>
</g>
</svg>
