<svg width="16" height="10" viewBox="0 0 16 10" fill="none" xmlns="http://www.w3.org/2000/svg">
<path fill-rule="evenodd" clip-rule="evenodd" d="M0.666667 8.20513C0.298667 8.20513 0 8.49231 0 8.84615V9.35897C0 9.71282 0.298667 10 0.666667 10H15.3333C15.7013 10 16 9.71282 16 9.35897V8.84615C16 8.49231 15.7013 8.20513 15.3333 8.20513H0.666667ZM0.666667 0C0.298667 0 0 0.287179 0 0.641026V1.15385C0 1.50769 0.298667 1.79487 0.666667 1.79487H15.3333C15.7013 1.79487 16 1.50769 16 1.15385V0.641026C16 0.287179 15.7013 0 15.3333 0H0.666667ZM16 5.25641C16 5.61026 15.7013 5.89744 15.3333 5.89744H0.666667C0.298667 5.89744 0 5.61026 0 5.25641V4.74359C0 4.38974 0.298667 4.10256 0.666667 4.10256H15.3333C15.7013 4.10256 16 4.38974 16 4.74359V5.25641Z" fill="#A4A4A4"/>
</svg>
