<svg width="18" height="18" viewBox="0 0 18 18" fill="none" xmlns="http://www.w3.org/2000/svg">
<path fill-rule="evenodd" clip-rule="evenodd" d="M14.4 10.6875C13.4073 10.6875 12.6 9.8802 12.6 8.8875C12.6 7.8948 13.4073 7.0875 14.4 7.0875C15.3927 7.0875 16.2 7.8948 16.2 8.8875C16.2 9.8802 15.3927 10.6875 14.4 10.6875ZM3.6 16.2C2.6073 16.2 1.8 15.3927 1.8 14.4C1.8 13.4073 2.6073 12.6 3.6 12.6C5.9787 12.6 5.9796 16.2 3.6 16.2ZM3.6 5.4C2.6073 5.4 1.8 4.5927 1.8 3.6C1.8 2.6073 2.6073 1.8 3.6 1.8C5.9787 1.8 5.9796 5.4 3.6 5.4ZM14.4 5.2875C13.3011 5.2875 12.33 5.7906 11.6694 6.5664L7.1631 3.9645C7.3908 1.7271 5.6421 0 3.6 0C1.6119 0 0 1.6119 0 3.6C0 5.5881 1.6119 7.2 3.6 7.2C4.8123 7.2 5.8788 6.5961 6.5313 5.6781L10.8711 8.1837C10.7739 8.6733 10.7766 9.1449 10.8792 9.6336L6.4269 12.1959C5.7681 11.3517 4.7529 10.8 3.6 10.8C1.6119 10.8 0 12.4119 0 14.4C0 16.3881 1.6119 18 3.6 18C5.7258 18 7.4916 16.1352 7.1451 13.8591L11.6955 11.241C12.3552 11.9988 13.3164 12.4875 14.4 12.4875C16.3881 12.4875 18 10.8756 18 8.8875C18 6.8994 16.3881 5.2875 14.4 5.2875Z" fill="#8F9BB3"/>
</svg>
