<svg width="24" height="16" viewBox="0 0 24 16" fill="none" xmlns="http://www.w3.org/2000/svg">
<mask id="mask0_0_207" style="mask-type:luminance" maskUnits="userSpaceOnUse" x="0" y="1" width="24" height="15">
<path fill-rule="evenodd" clip-rule="evenodd" d="M0.00280762 1.5H24V15.1988H0.00280762V1.5Z" fill="white"/>
</mask>
<g mask="url(#mask0_0_207)">
<path fill-rule="evenodd" clip-rule="evenodd" d="M23.25 7.875C23.25 8.08228 23.4177 8.25 23.625 8.25C23.8323 8.25 24 8.08228 24 7.875C24 4.30041 18.7291 1.5 12 1.5V2.25C18.2032 2.25 23.25 4.77319 23.25 7.875Z" fill="#7F9FF6"/>
<path fill-rule="evenodd" clip-rule="evenodd" d="M12.59 13.6326L10.3656 12.4219C10.1828 12.3223 9.95545 12.39 9.85692 12.5716C9.75769 12.7537 9.82509 12.9815 10.0067 13.0803L10.7073 13.4618C5.11102 13.14 0.75 10.7582 0.75 7.875C0.75 4.77319 5.79675 2.25 12 2.25V1.5C5.27086 1.5 0 4.30041 0 7.875C0 11.2022 4.56722 13.8572 10.6256 14.2092L9.90127 14.4712C9.70678 14.5419 9.60609 14.7568 9.67641 14.9517C9.73167 15.104 9.87563 15.1988 10.029 15.1988C10.0715 15.1988 10.1144 15.1919 10.1569 15.1765L12.5383 14.3143C12.6768 14.2643 12.7734 14.1372 12.7844 13.9898C12.7954 13.8431 12.7192 13.7029 12.59 13.6326Z" fill="#7F9FF6"/>
</g>
<path fill-rule="evenodd" clip-rule="evenodd" d="M23.0658 10.0935C22.998 10.0935 22.9292 10.0752 22.8677 10.0367C22.6919 9.92685 22.6384 9.69543 22.7479 9.52002C22.8091 9.42224 22.8647 9.32301 22.9156 9.22302C23.009 9.03843 23.2335 8.96338 23.4195 9.05821C23.6041 9.15159 23.6781 9.3772 23.5844 9.56212C23.5239 9.68188 23.4573 9.80015 23.3844 9.91696C23.313 10.0309 23.1907 10.0935 23.0658 10.0935Z" fill="#ECEAEC"/>
<path fill-rule="evenodd" clip-rule="evenodd" d="M16.4044 13.8043C16.2312 13.8043 16.0756 13.6835 16.0379 13.5073C15.995 13.3048 16.1243 13.1056 16.3268 13.0624C16.5871 13.0071 16.8421 12.9478 17.0918 12.8833C17.2906 12.8328 17.4968 12.9525 17.5485 13.1532C17.6001 13.3539 17.4793 13.5582 17.2786 13.6099C17.0185 13.6765 16.7534 13.7388 16.4828 13.7962C16.4564 13.8018 16.4301 13.8043 16.4044 13.8043ZM18.9031 13.0785C18.7522 13.0785 18.6101 12.9869 18.553 12.8375C18.479 12.6442 18.5757 12.4274 18.769 12.3534C19.0166 12.2586 19.2568 12.1586 19.489 12.0542C19.6776 11.9689 19.8999 12.0531 19.9849 12.2424C20.0698 12.431 19.9856 12.6533 19.7966 12.7383C19.552 12.8485 19.2986 12.9536 19.0371 13.0536C18.9932 13.0704 18.9478 13.0785 18.9031 13.0785ZM21.2216 11.9044C21.1007 11.9044 20.9824 11.8462 20.9099 11.7385C20.7946 11.5664 20.8403 11.3335 21.0121 11.2181C21.2307 11.0713 21.4369 10.9182 21.6251 10.7626C21.7855 10.6315 22.0214 10.6538 22.1532 10.8131C22.285 10.9728 22.2623 11.2094 22.1026 11.3412C21.8954 11.5122 21.6691 11.6803 21.4303 11.8407C21.3662 11.8839 21.2933 11.9044 21.2216 11.9044Z" fill="#ECEAEC"/>
<path fill-rule="evenodd" clip-rule="evenodd" d="M14.2496 14.1376C14.0592 14.1376 13.8962 13.9933 13.8768 13.7996C13.8564 13.5937 14.0068 13.4099 14.213 13.3894C14.3357 13.3773 14.458 13.3634 14.5789 13.3491C14.7854 13.3228 14.9711 13.4718 14.9956 13.6772C15.0202 13.8831 14.8729 14.0694 14.6675 14.094C14.5415 14.109 14.4148 14.1229 14.287 14.1357C14.2745 14.1368 14.2621 14.1376 14.2496 14.1376Z" fill="#ECEAEC"/>
<path fill-rule="evenodd" clip-rule="evenodd" d="M19.5 4.875H4.5C4.08581 4.875 3.75 4.53919 3.75 4.125V2.25C3.75 1.83581 4.08581 1.5 4.5 1.5H19.5C19.9142 1.5 20.25 1.83581 20.25 2.25V4.125C20.25 4.53919 19.9142 4.875 19.5 4.875Z" fill="#5D5360"/>
<path fill-rule="evenodd" clip-rule="evenodd" d="M4.5 4.875H6V1.5H4.5C4.08581 1.5 3.75 1.83581 3.75 2.25V4.125C3.75 4.53919 4.08581 4.875 4.5 4.875Z" fill="#4B3F4E"/>
<path fill-rule="evenodd" clip-rule="evenodd" d="M17.25 0H6.75C5.92163 0 5.25 0.671625 5.25 1.5V5.12822C5.25 6.66394 6.75459 7.74848 8.21156 7.26286L10.8142 6.39534C11.1989 6.26695 11.5995 6.20288 12 6.20288C12.4005 6.20288 12.8011 6.26695 13.1858 6.39534L15.7884 7.26286C17.2454 7.74848 18.75 6.66394 18.75 5.12822V1.5C18.75 0.671625 18.0784 0 17.25 0Z" fill="#6F6571"/>
<path fill-rule="evenodd" clip-rule="evenodd" d="M12.75 1.875H11.25C11.0427 1.875 10.875 1.70728 10.875 1.5C10.875 1.29272 11.0427 1.125 11.25 1.125H12.75C12.9573 1.125 13.125 1.29272 13.125 1.5C13.125 1.70728 12.9573 1.875 12.75 1.875Z" fill="#857E87"/>
<path fill-rule="evenodd" clip-rule="evenodd" d="M16.0133 6.54713L13.4231 5.68379C12.9633 5.53051 12.4845 5.45269 12 5.45269C11.5155 5.45269 11.0367 5.53051 10.5769 5.68379L7.97423 6.55135C7.81767 6.60352 7.65694 6.63005 7.49653 6.63005C6.67125 6.63005 6 5.95622 6 5.12822V0.200302C5.55361 0.46013 5.25 0.946318 5.25 1.50001V5.12822C5.25 6.66394 6.75459 7.74849 8.21156 7.26286L10.8142 6.39535C11.1989 6.26696 11.5995 6.20288 12 6.20288C12.4005 6.20288 12.8011 6.26696 13.1858 6.39535L15.7884 7.26286C16.559 7.5196 17.3454 7.33538 17.913 6.87947C17.319 6.85201 16.68 6.7434 16.0133 6.54713Z" fill="#5D5360"/>
<path fill-rule="evenodd" clip-rule="evenodd" d="M12.59 13.6326L10.3656 12.4219C10.1828 12.3223 9.95545 12.39 9.85692 12.5716C9.75769 12.7537 9.82509 12.9815 10.0067 13.0803L10.7073 13.4618C7.67597 13.2874 5.0085 12.5083 3.19903 11.3727C2.9482 11.2152 2.625 11.3923 2.625 11.6885C2.625 11.8176 2.6887 11.9388 2.79802 12.0077C4.71 13.214 7.46409 14.0255 10.6256 14.2092L9.90127 14.4712C9.70678 14.5419 9.60609 14.7568 9.67641 14.9517C9.73167 15.104 9.87563 15.1988 10.029 15.1988C10.0715 15.1988 10.1144 15.1919 10.1569 15.1765L12.5383 14.3143C12.6768 14.2643 12.7734 14.1372 12.7844 13.9898C12.7954 13.8431 12.7192 13.7029 12.59 13.6326Z" fill="#2E4B9C"/>
</svg>
